<?xml version="1.0" encoding="UTF-8" standalone="no"?>
<svg
   xmlns:dc="http://purl.org/dc/elements/1.1/"
   xmlns:cc="http://creativecommons.org/ns#"
   xmlns:rdf="http://www.w3.org/1999/02/22-rdf-syntax-ns#"
   xmlns:svg="http://www.w3.org/2000/svg"
   xmlns="http://www.w3.org/2000/svg"
   xmlns:sodipodi="http://sodipodi.sourceforge.net/DTD/sodipodi-0.dtd"
   xmlns:inkscape="http://www.inkscape.org/namespaces/inkscape"
   width="337.99341"
   height="109.8122"
   viewBox="0 0 337.9934 109.8122"
   version="1.1"
   id="svg34"
   sodipodi:docname="logo.svg"
   inkscape:version="0.92.4 (5da689c313, 2019-01-14)">
  <metadata
     id="metadata40">
    <rdf:RDF>
      <cc:Work
         rdf:about="">
        <dc:format>image/svg+xml</dc:format>
        <dc:type
           rdf:resource="http://purl.org/dc/dcmitype/StillImage" />
        <dc:title></dc:title>
      </cc:Work>
    </rdf:RDF>
  </metadata>
  <defs
     id="defs38" />
  <sodipodi:namedview
     pagecolor="#ffffff"
     bordercolor="#666666"
     borderopacity="1"
     objecttolerance="10"
     gridtolerance="10"
     guidetolerance="10"
     inkscape:pageopacity="0"
     inkscape:pageshadow="2"
     inkscape:window-width="1920"
     inkscape:window-height="999"
     id="namedview36"
     showgrid="false"
     fit-margin-top="0"
     fit-margin-left="0"
     fit-margin-right="0"
     fit-margin-bottom="0"
     borderlayer="true"
     inkscape:showpageshadow="false"
     inkscape:zoom="3.2246802"
     inkscape:cx="243.41889"
     inkscape:cy="93.334959"
     inkscape:window-x="0"
     inkscape:window-y="0"
     inkscape:window-maximized="1"
     inkscape:current-layer="g32" />
  <g
     id="g32"
     style="fill:none;fill-rule:evenodd"
     transform="translate(-34.77981,0.00100001)">
    <path
       d="m 63.491,95.875 -8.319,1.162 a 34.935,34.935 0 0 1 -3.18,-2.813 48.585,48.585 0 0 1 -7.83,-9.482 c -3.304,-5.2 -5.75,-10.888 -7.036,-16.884 -0.183,-0.733 -0.305,-1.467 -0.428,-2.202 0.428,0.245 0.918,0.49 1.346,0.735 1.835,0.856 3.793,1.345 5.811,1.407 1.774,0.122 3.61,-0.123 5.322,-0.612 0.245,-0.061 0.428,-0.123 0.612,-0.184 2.324,-0.795 4.404,-2.08 5.994,-3.976 0.49,2.019 1.102,4.037 1.958,5.995 0,0.06 0.061,0.123 0.061,0.183 1.53,3.426 3.548,6.668 6.056,9.42 0.49,0.552 0.98,1.04 1.468,1.53 l 1.53,10.95 c 0.366,2.325 -1.163,4.465 -3.365,4.77"
       id="path4"
       inkscape:connector-curvature="0"
       style="fill:#ef8035" />
    <path
       d="m 63.491,95.875 -8.319,1.162 a 34.935,34.935 0 0 1 -3.18,-2.813 48.585,48.585 0 0 1 -7.83,-9.482 c -3.304,-5.2 -5.75,-10.888 -7.036,-16.884 -0.183,-0.733 -0.305,-1.467 -0.428,-2.202 0.428,0.245 0.918,0.49 1.346,0.735 1.835,0.856 3.793,1.345 5.811,1.407 1.774,0.122 3.61,-0.123 5.322,-0.612 0.245,-0.061 0.428,-0.123 0.612,-0.184 2.324,-0.795 4.404,-2.08 5.994,-3.976 0.49,2.019 1.102,4.037 1.958,5.995 0,0.06 0.061,0.123 0.061,0.183 1.53,3.426 3.548,6.668 6.056,9.42 0.49,0.552 0.98,1.04 1.468,1.53 l 1.53,10.95 c 0.366,2.325 -1.163,4.465 -3.365,4.77 z"
       id="path6"
       inkscape:connector-curvature="0"
       style="stroke:#ab552c;stroke-width:1.99800003;stroke-linecap:round;stroke-linejoin:round" />
    <path
       d="m 116.098,6.687 h -0.184 c -5.627,3.731 -10.337,8.87 -13.518,14.865 -0.428,-0.123 -0.857,-0.306 -1.285,-0.428 a 37.714,37.714 0 0 0 -7.402,-1.468 c -6.3,-0.613 -12.662,0.551 -18.35,3.242 -2.509,1.162 -4.894,2.691 -7.096,4.465 3.241,-4.77 5.933,-9.42 6.3,-15.965 C 74.685,8.645 74.441,5.892 73.829,3.323 A 57.84,57.84 0 0 1 85.513,1.183 68.883,68.883 0 0 1 90.53,0.998 h 0.061 c 1.896,0 3.792,0.061 5.69,0.245 2.506,0.244 5.076,0.611 7.523,1.162 4.22,0.917 8.32,2.385 12.173,4.281 0.061,-0.06 0.061,0 0.122,0"
       id="path8"
       inkscape:connector-curvature="0"
       style="fill:#4eaf6a" />
    <path
       d="m 116.098,6.687 h -0.184 c -5.627,3.731 -10.337,8.87 -13.518,14.865 -0.428,-0.123 -0.857,-0.306 -1.285,-0.428 a 37.714,37.714 0 0 0 -7.402,-1.468 c -6.3,-0.613 -12.662,0.551 -18.35,3.242 -2.509,1.162 -4.894,2.691 -7.096,4.465 3.241,-4.77 5.933,-9.42 6.3,-15.965 C 74.685,8.645 74.441,5.892 73.829,3.323 A 57.84,57.84 0 0 1 85.513,1.183 68.883,68.883 0 0 1 90.53,0.998 h 0.061 c 1.896,0 3.792,0.061 5.69,0.245 2.506,0.244 5.076,0.611 7.523,1.162 4.22,0.917 8.32,2.385 12.173,4.281 0.061,-0.06 0.061,0 0.122,0 z"
       id="path10"
       inkscape:connector-curvature="0"
       style="stroke:#316d41;stroke-width:1.99800003;stroke-linecap:round;stroke-linejoin:round" />
    <path
       d="m 107.473,105.112 c -0.489,1.468 -2.019,1.712 -3.303,2.02 a 66.26,66.26 0 0 1 -4.772,0.916 c -2.936,0.428 -5.872,0.612 -8.808,0.734 -0.612,0 -1.223,0.061 -1.774,0 -2.447,0 -4.955,-0.245 -7.402,-0.612 -3.18,-0.428 -6.362,-1.162 -9.482,-2.14 -5.627,-1.836 -10.949,-4.527 -15.659,-8.137 -0.367,-0.305 -0.734,-0.55 -1.1,-0.856 l 8.318,-1.162 c 2.202,-0.306 3.732,-2.447 3.425,-4.772 L 65.388,80.154 c 0.366,0.367 0.794,0.734 1.162,1.101 a 36.477,36.477 0 0 0 2.324,1.958 c 2.508,1.957 5.322,3.486 8.258,4.71 2.753,1.101 5.69,1.896 8.625,2.263 3.242,0.428 6.485,0.428 9.726,-0.06 a 30.97,30.97 0 0 0 2.325,-0.429 c 0.612,-0.123 1.162,-0.245 1.713,-0.184 0.061,0 0.183,0.061 0.244,0.061 0.43,0.123 0.795,0.367 1.102,0.734 0.183,0.184 0.305,0.428 0.428,0.673 1.223,2.324 2.386,4.71 3.548,7.034 0.061,0.062 0.061,0.184 0.122,0.245 0.612,1.224 1.223,2.386 1.774,3.61 0.55,1.1 1.162,2.018 0.734,3.242"
       id="path12"
       inkscape:connector-curvature="0"
       style="fill:#e73b5c" />
    <path
       d="m 107.473,105.112 c -0.489,1.468 -2.019,1.712 -3.303,2.02 a 66.26,66.26 0 0 1 -4.772,0.916 c -2.936,0.428 -5.872,0.612 -8.808,0.734 -0.612,0 -1.223,0.061 -1.774,0 -2.447,0 -4.955,-0.245 -7.402,-0.612 -3.18,-0.428 -6.362,-1.162 -9.482,-2.14 -5.627,-1.836 -10.949,-4.527 -15.659,-8.137 -0.367,-0.305 -0.734,-0.55 -1.1,-0.856 l 8.318,-1.162 c 2.202,-0.306 3.732,-2.447 3.425,-4.772 L 65.388,80.154 c 0.366,0.367 0.794,0.734 1.162,1.101 a 36.477,36.477 0 0 0 2.324,1.958 c 2.508,1.957 5.322,3.486 8.258,4.71 2.753,1.101 5.69,1.896 8.625,2.263 3.242,0.428 6.485,0.428 9.726,-0.06 a 30.97,30.97 0 0 0 2.325,-0.429 c 0.612,-0.123 1.162,-0.245 1.713,-0.184 0.061,0 0.183,0.061 0.244,0.061 0.43,0.123 0.795,0.367 1.102,0.734 0.183,0.184 0.305,0.428 0.428,0.673 1.223,2.324 2.386,4.71 3.548,7.034 0.061,0.062 0.061,0.184 0.122,0.245 0.612,1.224 1.223,2.386 1.774,3.61 0.55,1.1 1.162,2.018 0.734,3.242 z"
       id="path14"
       inkscape:connector-curvature="0"
       style="stroke:#a0263c;stroke-width:1.99800003" />
    <path
       d="m 36.637,65.596 c -0.06,-0.184 -0.06,-0.367 -0.123,-0.612 -0.183,-1.162 -0.305,-2.325 -0.428,-3.487 -0.06,-0.305 -0.06,-0.55 -0.06,-0.856 -0.368,-3.977 -0.306,-7.952 0.06,-11.806 v -0.123 c 0,-0.428 0,-0.795 0.062,-1.222 a 56.294,56.294 0 0 1 4.037,-14.682 l 0.734,-1.651 c 2.692,-5.628 6.362,-10.766 10.888,-15.11 2.325,-2.263 4.894,-4.282 7.585,-6.117 2.447,-1.651 5.078,-3.06 7.77,-4.281 a 63.442,63.442 0 0 1 6.483,-2.386 c 0.612,2.568 0.918,5.26 0.734,8.074 -0.367,6.607 -3.058,11.195 -6.3,15.966 -0.184,0.122 -0.367,0.306 -0.612,0.489 -0.06,0.062 -0.06,0.062 -0.122,0.122 -2.14,1.835 -4.099,3.854 -5.75,6.179 -0.184,0.244 -0.306,0.489 -0.49,0.673 -1.774,2.569 -3.242,5.383 -4.28,8.38 -0.674,1.958 -1.225,3.915 -1.53,5.995 0,0.184 -0.062,0.367 -0.062,0.489 -0.06,0.245 -0.06,0.55 -0.122,0.857 0,0.122 -0.06,0.244 -0.06,0.427 -0.124,1.163 -0.185,2.326 -0.247,3.488 v 0.427 c 0,1.346 0.062,2.753 0.184,4.099 0.123,1.407 0.367,2.753 0.673,4.16 -1.59,1.896 -3.732,3.24 -5.995,3.976 -0.183,0.06 -0.428,0.122 -0.612,0.183 -1.712,0.49 -3.547,0.673 -5.32,0.612 -2.02,-0.122 -3.977,-0.55 -5.812,-1.407 -0.49,-0.245 -0.918,-0.49 -1.346,-0.734 z"
       id="path16"
       inkscape:connector-curvature="0"
       style="fill:#f6d331" />
    <path
       d="m 36.637,65.596 c -0.06,-0.184 -0.06,-0.367 -0.123,-0.612 -0.183,-1.162 -0.305,-2.325 -0.428,-3.487 -0.06,-0.305 -0.06,-0.55 -0.06,-0.856 -0.368,-3.977 -0.306,-7.952 0.06,-11.806 v -0.123 c 0,-0.428 0,-0.795 0.062,-1.222 a 56.294,56.294 0 0 1 4.037,-14.682 l 0.734,-1.651 c 2.692,-5.628 6.362,-10.766 10.888,-15.11 2.325,-2.263 4.894,-4.282 7.585,-6.117 2.447,-1.651 5.078,-3.06 7.77,-4.281 a 63.442,63.442 0 0 1 6.483,-2.386 c 0.612,2.568 0.918,5.26 0.734,8.074 -0.367,6.607 -3.058,11.195 -6.3,15.966 -0.184,0.122 -0.367,0.306 -0.612,0.489 -0.06,0.062 -0.06,0.062 -0.122,0.122 -2.14,1.835 -4.099,3.854 -5.75,6.179 -0.184,0.244 -0.306,0.489 -0.49,0.673 -1.774,2.569 -3.242,5.383 -4.28,8.38 -0.674,1.958 -1.225,3.915 -1.53,5.995 0,0.184 -0.062,0.367 -0.062,0.489 -0.06,0.245 -0.06,0.55 -0.122,0.857 0,0.122 -0.06,0.244 -0.06,0.427 -0.124,1.163 -0.185,2.326 -0.247,3.488 v 0.427 c 0,1.346 0.062,2.753 0.184,4.099 0.123,1.407 0.367,2.753 0.673,4.16 -1.59,1.896 -3.732,3.24 -5.995,3.976 -0.183,0.06 -0.428,0.122 -0.612,0.183 -1.712,0.49 -3.547,0.673 -5.32,0.612 -2.02,-0.122 -3.977,-0.55 -5.812,-1.407 -0.49,-0.245 -0.918,-0.49 -1.346,-0.734 z"
       id="path18"
       inkscape:connector-curvature="0"
       style="stroke:#a4872f;stroke-width:1.99800003;stroke-linecap:round;stroke-linejoin:round" />
    <path
       d="m 145.215,57.154 c -5.627,3.854 -12.173,9.848 -17.189,7.401 -1.162,-0.55 -2.019,-1.529 -2.569,-2.813 0.55,-2.876 0.734,-5.873 0.612,-8.81 -0.306,-5.627 -2.019,-11.132 -4.833,-15.965 -0.245,-0.367 -0.489,-0.795 -0.734,-1.162 A 34.717,34.717 0 0 0 109.614,24.977 c -0.367,-0.244 -0.734,-0.489 -1.1,-0.673 -0.185,-0.122 -0.307,-0.182 -0.49,-0.305 a 33.83,33.83 0 0 0 -5.689,-2.57 c 3.241,-5.994 7.89,-11.07 13.518,-14.864 0.123,0.062 0.245,0.062 0.367,0.122 0.49,0.245 1.04,0.49 1.53,0.796 0.061,0 0.122,0.061 1.101,0.611 l 0.917,0.551 c 4.65,2.814 8.87,6.301 12.418,10.4 3.915,4.464 7.034,9.603 9.237,15.108 2.385,5.995 3.547,12.48 3.67,18.902 0.184,1.468 0.184,2.814 0.122,4.1"
       id="path20"
       inkscape:connector-curvature="0"
       style="fill:#4595d1" />
    <path
       d="m 145.215,57.154 c -5.627,3.854 -12.173,9.848 -17.189,7.401 -1.162,-0.55 -2.019,-1.529 -2.569,-2.813 0.55,-2.876 0.734,-5.873 0.612,-8.81 -0.306,-5.627 -2.019,-11.132 -4.833,-15.965 -0.245,-0.367 -0.489,-0.795 -0.734,-1.162 A 34.717,34.717 0 0 0 109.614,24.977 c -0.367,-0.244 -0.734,-0.489 -1.1,-0.673 -0.185,-0.122 -0.307,-0.182 -0.49,-0.305 a 33.83,33.83 0 0 0 -5.689,-2.57 c 3.241,-5.994 7.89,-11.07 13.518,-14.864 0.123,0.062 0.245,0.062 0.367,0.122 0.49,0.245 1.04,0.49 1.53,0.796 0.061,0 0.122,0.061 1.101,0.611 l 0.917,0.551 c 4.65,2.814 8.87,6.301 12.418,10.4 3.915,4.464 7.034,9.603 9.237,15.108 2.385,5.995 3.547,12.48 3.67,18.902 0.184,1.468 0.184,2.814 0.122,4.1 z"
       id="path22"
       inkscape:connector-curvature="0"
       style="stroke:#096286;stroke-width:1.99800003;stroke-linecap:round;stroke-linejoin:round" />
    <path
       d="m 143.32,108.72 h -15.6 c -0.856,0 -1.774,0.124 -2.508,-0.366 -1.039,-0.612 -1.529,-2.141 -2.08,-3.181 L 112.917,85.048 c 0,-0.061 -0.06,-0.122 -0.06,-0.183 a 2.554,2.554 0 0 1 0,-1.652 c 0.244,-0.734 0.794,-1.162 1.344,-1.651 0.184,-0.184 0.43,-0.367 0.612,-0.551 a 33.258,33.258 0 0 0 3.732,-4.037 c 0.734,-0.918 1.407,-1.897 2.08,-2.875 1.04,-1.652 1.957,-3.304 2.691,-5.14 a 36.438,36.438 0 0 0 2.202,-7.217 c 0.612,1.285 1.407,2.263 2.57,2.814 5.015,2.446 11.5,-3.548 17.19,-7.401 -0.185,4.159 -0.797,8.318 -1.959,12.295 -0.123,0.489 -0.306,0.978 -0.428,1.467 a 48.14,48.14 0 0 1 -3.303,8.014 v 0.06 c -0.245,0.49 -0.55,1.042 -0.796,1.53 -0.306,0.55 -0.612,1.1 -0.978,1.652 -0.123,0.184 -0.184,0.306 -0.307,0.489 -0.489,0.735 -1.223,1.652 -1.529,2.508 -0.244,0.918 -0.06,1.224 -0.06,1.224 0.122,0.61 0.488,1.162 0.734,1.65 l 4.281,8.015 1.774,3.303 c 0.98,1.836 1.958,3.73 2.936,5.567 0.857,1.773 -0.489,3.73 -2.324,3.792"
       id="path24"
       inkscape:connector-curvature="0"
       style="fill:#755ead" />
    <path
       d="m 143.32,108.72 h -15.6 c -0.856,0 -1.774,0.124 -2.508,-0.366 -1.039,-0.612 -1.529,-2.141 -2.08,-3.181 L 112.917,85.048 c 0,-0.061 -0.06,-0.122 -0.06,-0.183 a 2.554,2.554 0 0 1 0,-1.652 c 0.244,-0.734 0.794,-1.162 1.344,-1.651 0.184,-0.184 0.43,-0.367 0.612,-0.551 a 33.258,33.258 0 0 0 3.732,-4.037 c 0.734,-0.918 1.407,-1.897 2.08,-2.875 1.04,-1.652 1.957,-3.304 2.691,-5.14 a 36.438,36.438 0 0 0 2.202,-7.217 c 0.612,1.285 1.407,2.263 2.57,2.814 5.015,2.446 11.5,-3.548 17.19,-7.401 -0.185,4.159 -0.797,8.318 -1.959,12.295 -0.123,0.489 -0.306,0.978 -0.428,1.467 a 48.14,48.14 0 0 1 -3.303,8.014 v 0.06 c -0.245,0.49 -0.55,1.042 -0.796,1.53 -0.306,0.55 -0.612,1.1 -0.978,1.652 -0.123,0.184 -0.184,0.306 -0.307,0.489 -0.489,0.735 -1.223,1.652 -1.529,2.508 -0.244,0.918 -0.06,1.224 -0.06,1.224 0.122,0.61 0.488,1.162 0.734,1.65 l 4.281,8.015 1.774,3.303 c 0.98,1.836 1.958,3.73 2.936,5.567 0.857,1.773 -0.489,3.73 -2.324,3.792 z"
       id="path26"
       inkscape:connector-curvature="0"
       style="stroke:#54467f;stroke-width:1.99800003;stroke-linecap:round;stroke-linejoin:round" />
    <g
       id="g44">
      <path
         style="fill:#13100d"
         inkscape:connector-curvature="0"
         id="path28"
         d="m 245.51831,54.316458 5.198,-19.391 a 0.865,0.865 0 0 1 0.857,-0.612 h 6.3 c 0.49,0 0.857,0.367 0.857,0.857 0,0.06 0,0.183 -0.06,0.245 l -9.116,27.465 c -0.122,0.306 -0.428,0.49 -0.795,0.49 h -5.933 a 0.924,0.924 0 0 1 -0.796,-0.49 l -6.423,-18.718 -6.117,18.718 c -0.122,0.245 -0.428,0.428 -0.795,0.428 h -5.81 a 0.871,0.871 0 0 1 -0.797,-0.551 l -9.175,-27.71 c 0,-0.49 0.367,-0.856 0.856,-0.856 h 6.484 c 0.306,0.062 0.612,0.245 0.734,0.489 l 5.2,19.452 5.995,-19.452 a 0.872,0.872 0 0 1 0.795,-0.551 h 5.383 c 0.367,0 0.673,0.184 0.795,0.49 l 6.362,19.697 z m 101.849,7.891 c 0,0 0,0.061 0.06,-0.184 v 0.122 c -0.06,0.306 -0.244,0.612 -0.55,0.735 -0.734,0.367 -1.651,0.673 -2.752,0.917 -1.407,0.367 -2.875,0.49 -4.404,0.49 h -0.612 c -0.306,-0.674 -0.796,-1.285 -1.346,-1.836 -1.285,-1.223 -2.936,-1.896 -4.771,-1.896 -0.673,0 -1.346,0.061 -1.958,0.245 -1.346,-1.835 -2.02,-4.405 -2.02,-7.769 v -12.173 h -4.892 c -0.245,-0.06 -0.49,-0.183 -0.612,-0.428 -0.061,-0.122 -0.122,-0.244 -0.122,-0.428 v -4.833 c 0,-0.489 0.367,-0.857 0.856,-0.857 h 4.77 v -7.034 c 0,-0.489 0.369,-0.856 0.858,-0.856 h 6.178 c 0.428,0 0.796,0.367 0.857,0.795 v 7.095 h 8.196 c 0.429,0 0.857,0.368 0.857,0.857 v 4.955 c 0,0.49 -0.367,0.795 -0.796,0.856 h -8.257 v 10.766 c 0,2.02 0.367,3.487 1.04,4.344 0.672,0.917 1.835,1.346 3.486,1.346 1.407,0 2.753,-0.246 3.976,-0.735 0.123,0 0.184,-0.06 0.245,-0.06 0.122,-0.062 0.184,-0.062 0.245,-0.062 0.428,0.061 0.795,0.367 0.856,0.795 z m -140.327,-6.546 2.752,4.588 c 0.43,0.795 0.797,1.53 1.224,2.324 0.367,0.734 -0.184,1.591 -0.977,1.591 h -6.547 c -0.306,0 -0.733,0.061 -1.04,-0.122 -0.428,-0.245 -0.611,-0.918 -0.855,-1.346 l -4.282,-8.44 c -0.123,-0.246 -0.123,-0.552 -0.063,-0.797 0.063,-0.306 0.307,-0.489 0.552,-0.673 a 14.886,14.886 0 0 0 3.793,-5.26 c 0.916,-2.14 1.284,-4.466 1.162,-6.729 a 14.413,14.413 0 0 0 -2.325,-7.218 c -1.163,-1.774 -2.692,-3.365 -4.527,-4.527 -2.018,-1.285 -4.343,-2.019 -6.729,-2.263 -2.63,-0.245 -5.322,0.244 -7.707,1.346 -2.264,1.1 -4.22,2.691 -5.689,4.71 -1.469,2.08 -2.447,4.526 -2.752,7.095 -0.306,2.63 0.06,5.261 1.1,7.647 0.98,2.386 2.63,4.466 4.65,5.995 2.08,1.59 4.527,2.568 7.095,2.935 a 15.28,15.28 0 0 0 4.099,0 c 0.305,-0.06 0.672,-0.122 0.979,-0.183 0.244,-0.06 0.489,-0.122 0.794,-0.06 0.306,0.06 0.552,0.305 0.674,0.55 l 1.468,2.936 c 0.244,0.49 0.55,1.04 0.796,1.59 0.244,0.428 0.489,0.857 0.305,1.346 -0.244,0.611 -0.857,0.734 -1.407,0.857 l -2.018,0.366 c -1.225,0.183 -2.448,0.245 -3.67,0.306 -1.285,0.061 -2.57,-0.06 -3.855,-0.245 a 22.042,22.042 0 0 1 -3.976,-0.917 c -2.325,-0.796 -4.588,-1.958 -6.545,-3.425 -2.02,-1.53 -3.732,-3.365 -5.078,-5.506 -1.346,-2.14 -2.385,-4.588 -2.936,-7.096 -0.611,-2.569 -0.734,-5.199 -0.488,-7.83 0.243,-2.63 0.917,-5.199 2.078,-7.585 a 22.536,22.536 0 0 1 4.588,-6.36 c 1.836,-1.776 4.038,-3.305 6.424,-4.345 2.386,-1.1 4.954,-1.713 7.585,-1.897 2.57,-0.182 5.2,0 7.707,0.551 a 24.624,24.624 0 0 1 6.73,2.692 c 1.956,1.223 3.73,2.691 5.198,4.404 a 21.846,21.846 0 0 1 3.854,6.362 c 0.98,2.508 1.468,5.261 1.53,7.952 0.06,2.508 -0.245,5.077 -1.04,7.463 -0.367,1.162 -0.857,2.263 -1.407,3.364 a 13.188,13.188 0 0 1 -0.856,1.591 c -0.306,0.49 -0.795,0.98 -0.673,1.59 0.06,0.245 0.182,0.43 0.305,0.673 z m 72.794,-0.733 c 1.468,-1.529 2.202,-3.609 2.141,-5.995 0,-2.324 -0.612,-4.282 -1.957,-5.812 -2.325,-2.813 -5.75,-2.569 -5.75,-2.569 -2.264,0 -4.16,0.796 -5.567,2.325 -2.631,2.814 -2.141,6.667 -2.141,6.667 0.122,2.202 0.856,3.977 2.141,5.384 1.468,1.529 3.303,2.324 5.567,2.324 2.263,0 4.098,-0.795 5.566,-2.324 z m 8.809,-20.554 c 0.489,0 0.856,0.367 0.917,0.673 v 24.224 c -0.978,-0.673 -2.141,-1.04 -3.426,-0.918 l -2.446,0.245 a 5.266,5.266 0 0 0 -3.609,1.896 c -0.429,0.612 -0.796,1.224 -0.979,1.897 -1.162,0.795 -2.141,1.1 -2.141,1.1 -1.468,0.551 -3.059,0.795 -4.833,0.795 -2.569,0 -4.893,-0.611 -6.912,-1.895 -2.019,-1.224 -3.67,-3.059 -4.833,-5.384 -1.101,-2.141 -1.712,-4.648 -1.774,-7.463 v -0.611 c 0,-2.875 0.612,-5.444 1.774,-7.769 1.163,-2.324 2.814,-4.22 4.955,-5.628 2.142,-1.407 4.527,-2.14 7.219,-2.14 1.957,0 3.792,0.428 5.383,1.222 1.59,0.857 2.875,2.02 3.854,3.488 l 0.122,-2.997 a 0.857,0.857 0 0 1 0.856,-0.735 z m 32.543,6.729 c 0.306,1.346 0.489,2.937 0.489,4.71 v 16.822 a 0.837,0.837 0 0 1 -0.856,0.857 h -6.24 a 0.863,0.863 0 0 1 -0.856,-0.612 v -15.598 c 0,-4.528 -1.713,-6.79 -5.2,-6.79 -1.406,0 -2.63,0.367 -3.547,1.1 a 5.692,5.692 0 0 0 -0.857,0.857 c -1.04,1.223 -1.59,3.058 -1.59,5.383 v 15.048 a 0.92,0.92 0 0 1 -0.857,0.612 h -6.24 a 0.857,0.857 0 0 1 -0.855,-0.735 v -27.526 c 0,-0.49 0.366,-0.857 0.856,-0.857 h 5.934 c 0.428,0 0.795,0.306 0.856,0.735 l 0.06,2.875 c 0.858,-1.47 2.02,-2.57 3.549,-3.365 1.468,-0.795 3.242,-1.162 5.26,-1.162 3.488,0 6.056,1.04 7.892,3.18 1.039,1.163 1.774,2.693 2.202,4.466 z" />
      <path
         style="fill:#755ead"
         inkscape:connector-curvature="0"
         id="path30"
         d="m 280.87431,91.692458 c -1.285,0.122 -2.508,0.06 -3.793,-0.062 -0.734,-0.122 -1.407,-0.245 -2.019,-0.427 a 1.658,1.658 0 0 1 -1.101,-1.591 l 0.061,-1.285 c 0.062,-1.04 0.979,-1.774 1.958,-1.53 1.101,0.307 2.325,0.368 3.548,0.246 1.774,-0.184 2.997,-0.735 3.67,-1.774 0.673,-0.98 0.918,-2.57 0.734,-4.771 l -1.468,-16.272 c -0.061,-0.918 0.551,-1.652 1.468,-1.774 l 2.447,-0.244 c 0.918,-0.062 1.652,0.549 1.774,1.467 l 1.53,16.7 c 0.305,3.487 -0.246,6.178 -1.713,8.075 -1.408,1.835 -3.793,2.935 -7.096,3.242 m 19.269,-0.123 c -2.814,0 -5.016,-0.733 -6.484,-2.202 -1.53,-1.468 -2.264,-3.548 -2.264,-6.24 v -9.42 c 0,-0.917 0.735,-1.652 1.652,-1.652 h 1.896 c 0.918,0 1.652,0.735 1.652,1.653 v 9.359 c 0,2.63 1.224,3.976 3.609,3.976 2.325,0 3.487,-1.346 3.487,-3.976 v -9.36 c 0,-0.917 0.734,-1.652 1.652,-1.652 h 1.896 c 0.918,0 1.652,0.735 1.652,1.653 v 9.42 c 0,2.753 -0.734,4.833 -2.264,6.239 -1.53,1.469 -3.731,2.202 -6.484,2.202 m 11.316,-18.718 1.958,-0.184 c 0.856,-0.061 1.59,0.49 1.651,1.346 l 0.122,0.857 c 0.429,-0.98 1.102,-1.775 2.081,-2.386 0.917,-0.612 2.018,-0.98 3.364,-1.102 2.202,-0.244 3.976,0.307 5.322,1.53 1.284,1.223 2.08,3.18 2.385,5.75 l 1.04,9.788 c 0.123,0.917 -0.55,1.713 -1.468,1.835 l -1.835,0.183 c -0.917,0.122 -1.713,-0.551 -1.835,-1.468 l -0.917,-8.808 c -0.306,-2.937 -1.591,-4.282 -3.854,-4.038 -1.224,0.123 -2.141,0.612 -2.753,1.529 -0.612,0.918 -0.795,2.08 -0.673,3.609 l 0.856,8.503 c 0.123,0.917 -0.55,1.713 -1.467,1.835 l -1.836,0.184 c -0.917,0.122 -1.712,-0.551 -1.835,-1.468 l -1.651,-15.66 c -0.062,-0.98 0.55,-1.713 1.345,-1.835 m 21.594,-0.795 h 2.202 c 0.795,0 1.468,0.673 1.468,1.468 v 15.966 c 0,0.795 -0.673,1.467 -1.468,1.467 h -2.264 a 1.488,1.488 0 0 1 -1.467,-1.467 v -15.966 c 0.06,-0.795 0.734,-1.468 1.529,-1.468 m 15.415,12.295 c 1.468,0 2.69,-0.49 3.609,-1.53 0.917,-1.04 1.407,-2.324 1.407,-3.914 0,-1.591 -0.49,-2.875 -1.407,-3.915 -0.918,-1.04 -2.141,-1.53 -3.61,-1.53 -1.467,0 -2.691,0.49 -3.608,1.53 -0.918,1.04 -1.407,2.324 -1.407,3.915 0,1.59 0.489,2.936 1.407,3.915 0.917,1.04 2.14,1.529 3.609,1.529 m 0,4.588 a 10.68,10.68 0 0 1 -5.14,-1.285 c -1.528,-0.856 -2.812,-2.02 -3.73,-3.548 -0.918,-1.53 -1.407,-3.303 -1.407,-5.261 0,-1.835 0.428,-3.486 1.285,-5.015 0.856,-1.53 2.079,-2.753 3.609,-3.67 1.59,-0.918 3.303,-1.346 5.26,-1.346 1.835,0 3.548,0.428 5.139,1.223 1.529,0.856 2.814,2.018 3.73,3.547 0.919,1.53 1.347,3.304 1.347,5.26 0,1.837 -0.428,3.488 -1.284,5.018 -0.857,1.529 -2.08,2.753 -3.61,3.67 -1.53,0.978 -3.241,1.407 -5.2,1.407 m 13.581,-17.067 2.08,0.122 a 1.534,1.534 0 0 1 1.406,1.53 l -0.06,1.651 c 0.55,-1.1 1.283,-1.897 2.201,-2.447 0.917,-0.55 1.957,-0.795 3.12,-0.734 0.305,0 0.611,0.062 0.917,0.122 0.734,0.122 1.163,0.857 1.04,1.591 l -0.306,2.02 c -0.122,0.793 -0.856,1.344 -1.59,1.222 -0.306,-0.06 -0.612,-0.123 -0.918,-0.123 -1.407,-0.06 -2.508,0.367 -3.364,1.346 -0.857,0.98 -1.285,2.386 -1.346,4.221 l -0.306,7.096 c -0.06,0.857 -0.734,1.468 -1.59,1.468 l -2.14,-0.122 c -0.857,-0.062 -1.469,-0.734 -1.469,-1.59 l 0.734,-15.905 c 0.061,-0.918 0.795,-1.53 1.59,-1.468 m -29.178,-1.835 c -0.917,0 -1.713,-0.307 -2.325,-0.918 -0.612,-0.612 -0.917,-1.346 -0.917,-2.264 0,-0.917 0.305,-1.65 0.917,-2.262 0.612,-0.613 1.408,-0.918 2.325,-0.918 0.917,0 1.713,0.305 2.324,0.918 0.612,0.611 0.918,1.345 0.918,2.262 0,0.918 -0.306,1.652 -0.918,2.264 -0.61,0.611 -1.407,0.917 -2.324,0.917" />
    </g>
  </g>
</svg>
